<svg height="58" viewBox="0 0 1085.6 197.9" xmlns="http://www.w3.org/2000/svg"><path d="m10.7 98.6c0-48.1 39-87.1 87.1-87.1s87.1 39 87.1 87.1-39 87.1-87.1 87.1-87.1-39-87.1-87.1" fill="#7f9947"/><path d="m12.3 108.8s33.6-34.6 86.7-34.6 86.7 33.6 86.7 33.6-17.7 74-82.3 76.9c-16.8.7-74.3-4.8-91.1-75.9" fill="#627b3f"/><path d="m97.1 191.3c-51.5 0-93.4-41.9-93.4-93.4s41.9-93.4 93.4-93.4 93.4 41.9 93.4 93.4c-.1 51.5-41.9 93.4-93.4 93.4m0-176.3c-45.7 0-82.8 37.2-82.8 82.8 0 45.7 37.2 82.9 82.8 82.9s82.8-37.2 82.8-82.9c0-45.6-37.2-82.8-82.8-82.8" fill="#fff"/><path d="m179.9 43.8c-4.3-3.5-9.5-5.1-14.8-4.7-3.9.2-9 2.4-11.3 6.1-2.1 3.4-2.9 3.1-4.3.4-3-5.9-10.4-8.5-16.3-11.2-14.6-6.9-32.5-2.1-43.6 11-1.2 1.4-2 2.7-4.1 1.4-8.9-5.6-17-4.1-24.4 2.9-2 1.9-2.6 3.5-1.8 6 2.4 8.4 9.4 14.2 18.4 15.1 4.4.4 4.6.7 4.1 5.1-.4 3-.5 6-.7 9-.2 3.4.8 5.2 4.8 5.3 7.2.2 12.3 4.4 13.6 9.9.5 2.1 1.3 4.4 2.6 6.2 3.2 4.7 6.6 9.2 10.1 13.7 3.4 4.4 4 9.4 4.1 14.7 0 4-3.3 5.5-5.8 7.7-4.1 3.6-7.7 2.4-11.3-1.6-3.1-3.5-6.8-2.3-10.4-.8-.5 2.9-.7 5.4-1.2 7.7-.7 3.1-1.5 6.2-2.3 9.3-.3 1-.3 2.3-.9 3.1-2 2.6-.8 4.1 1.6 4.9 7.9 3 15.7 6.2 23.7 8.6 5.8 1.7 6.7 1.1 9-4.7 2.6-6.5 4.5-13.2 6.9-19.8.5-1.4 2-3.1 3.3-3.5 7.9-2 15.9-3.7 23.9-5.6 3.7-.9 6.7-3.6 5.9-7.3-1.3-6.3 1.6-9.1-1.5-15.3-.3-.7-2-2.9-2.6-3.4-3.5-2.8-4.1-6.7-4.3-10.7-.2-3.4-1-6.9 0-10.1 1.4-4.8 7.8-9 2.8-20.6-1.3-2.9-1.1-6.3 3.3-5 11.9 3.5 23.3-5.5 25.9-15.5 1-4.6 1-5.5-2.4-8.3" fill="#1d1d1b"/><path d="m88.6 141c2 3.8 1.3 7-.6 10.1-.6 1.1-1.5 2.4-1.3 3.5 1.1 6.9-3.6 11-7.8 16.1-3.8-1.5-8-2.9-11.9-4.9-23.6-12.4-37.1-31.9-40.6-58.2-.2-1.4.8-3.2 1.8-4.3 1.4-1.7 3.9-3.4 5.8-5.3 1.1-1.1.7-2.1 2.8-3.7.9-.7 2.6.1 3.8-.8-2.9-1.6-3.1-6.6-4.3-11.5-.8-4 6.9-1.8 13.7 1.8 3.9 2.1 7.6 3.2 7.8 3.1 1.1-.5-2.7-3.5-3.8-5.4-1.5-2.6-1.8-5 .4-4.7 7.2.2 12 3.2 15.4 8 2.9 4.1 6.3 5 11.1 4.5 4.1-.4 8.4.3 12.4 1.2 4.5 1.1 8.8 6.2 10 10.8.6 2.1-.3 2.7.9 4.5 3.5 5.1 7.3 10.1 11.1 15.1 3.7 4.8 4.5 10.4 3.7 15.9-.7 4.9-5.5 7.2-9.5 9-3.6 1.7-6.8-.7-9.3-3.6-3.5-4.1-7.4-1.8-11.6-1.2m180.8-23.9c0 8.2-2.9 14.6-8.8 19.3s-14 7-24.5 7c-9.6 0-18.2-1.8-25.6-5.4v-17.8c6.1 2.7 11.3 4.6 15.5 5.7s8.1 1.7 11.6 1.7c4.2 0 7.4-.8 9.7-2.4 2.2-1.6 3.4-4 3.4-7.2 0-1.8-.5-3.3-1.5-4.7s-2.4-2.7-4.4-4c-1.9-1.3-5.8-3.3-11.7-6.1-5.5-2.6-9.7-5.1-12.4-7.5-2.8-2.4-5-5.2-6.6-8.3-1.6-3.2-2.5-6.9-2.5-11.1 0-8 2.7-14.3 8.1-18.9s12.9-6.9 22.5-6.9c4.7 0 9.2.6 13.4 1.7 4.3 1.1 8.7 2.7 13.4 4.7l-6.2 14.9c-4.8-2-8.8-3.4-12-4.1-3.2-.8-6.3-1.2-9.3-1.2-3.6 0-6.4.8-8.3 2.5s-2.9 3.9-2.9 6.6c0 1.7.4 3.2 1.2 4.4.8 1.3 2 2.5 3.7 3.6 1.7 1.2 5.8 3.3 12.1 6.3 8.4 4 14.2 8.1 17.4 12.1 3.1 4.2 4.7 9.2 4.7 15.1m37.2-31.9c-4 0-7.1 1.3-9.4 3.8s-3.6 6.1-3.9 10.8h26.5c-.1-4.7-1.3-8.3-3.6-10.8-2.5-2.5-5.6-3.8-9.6-3.8m2.6 58.2c-11.1 0-19.8-3.1-26.1-9.2s-9.4-14.8-9.4-26.1c0-11.6 2.9-20.5 8.7-26.9 5.8-6.3 13.8-9.5 24-9.5 9.8 0 17.4 2.8 22.8 8.3 5.4 5.6 8.2 13.2 8.2 23.1v9.2h-44.6c.2 5.4 1.8 9.5 4.8 12.5s7.1 4.5 12.5 4.5c4.2 0 8.1-.4 11.8-1.3s7.6-2.2 11.6-4.1v14.6c-3.3 1.6-6.8 2.9-10.6 3.7-3.7.8-8.3 1.2-13.7 1.2m33.4-97.4h18.9v96.2h-18.9zm26 0h18.9v96.2h-18.9zm63.1 96.2-21.8-70.9h-.6c.8 14.4 1.2 24 1.2 28.9v42h-17.1v-90.4h26.1l21.4 69.1h.4l22.7-69.1h26v90.4h-17.9v-42.8c0-2 0-4.3.1-7 .1-2.6.3-9.6.8-21h-.6l-23.3 70.8zm62.1-69.1h20.6l13 38.9c1.1 3.4 1.9 7.4 2.3 12h.4c.5-4.2 1.3-8.2 2.7-12l12.8-38.9h20.2l-29.2 78c-2.7 7.2-6.5 12.6-11.5 16.2s-10.8 5.4-17.4 5.4c-3.3 0-6.4-.3-9.6-1.1v-15c2.3.5 4.7.8 7.4.8 3.3 0 6.3-1 8.7-3.1 2.5-2 4.4-5.1 5.8-9.2l1.1-3.4zm75.8 69.1v-90.4h19.2v74.6h36.6v15.8zm78.8 0h-18.9v-69.1h18.9zm-19.7-87c0-6.1 3.4-9.2 10.3-9.2s10.3 3.1 10.3 9.2c0 2.9-.9 5.2-2.6 6.8s-4.3 2.4-7.7 2.4c-6.9.1-10.3-3-10.3-9.2m48.9 87-26.3-69.1h19.7l13.4 39.4c1.5 5 2.4 9.7 2.8 14.2h.4c.2-4 1.1-8.7 2.8-14.2l13.3-39.4h19.7l-26.4 69.1zm72.3-57c-4 0-7.1 1.3-9.4 3.8s-3.6 6.1-3.9 10.8h26.5c-.1-4.7-1.3-8.3-3.6-10.8-2.4-2.5-5.6-3.8-9.6-3.8m2.7 58.2c-11.1 0-19.8-3.1-26.1-9.2s-9.4-14.8-9.4-26.1c0-11.6 2.9-20.5 8.7-26.9 5.8-6.3 13.8-9.5 24-9.5 9.8 0 17.4 2.8 22.8 8.3 5.4 5.6 8.2 13.2 8.2 23.1v9.2h-44.6c.2 5.4 1.8 9.5 4.8 12.5s7.1 4.5 12.5 4.5c4.2 0 8.1-.4 11.8-1.3s7.6-2.2 11.6-4.1v14.6c-3.3 1.6-6.8 2.9-10.6 3.7-3.7.8-8.3 1.2-13.7 1.2m84.1-21.7c0 7.1-2.5 12.5-7.4 16.2s-12.3 5.6-22.1 5.6c-5 0-9.3-.3-12.9-1-3.5-.7-6.9-1.7-10-3v-15.6c3.5 1.6 7.4 3 11.8 4.1s8.3 1.7 11.6 1.7c6.8 0 10.3-2 10.3-5.9 0-1.5-.5-2.7-1.4-3.6s-2.5-2-4.7-3.2-5.2-2.5-8.9-4.1c-5.3-2.2-9.2-4.3-11.7-6.2s-4.3-4.1-5.4-6.5c-1.1-2.5-1.7-5.5-1.7-9.1 0-6.1 2.4-10.9 7.1-14.3 4.8-3.4 11.5-5 20.2-5 8.3 0 16.4 1.8 24.3 5.4l-5.7 13.6c-3.5-1.5-6.7-2.7-9.7-3.6s-6.1-1.4-9.2-1.4c-5.6 0-8.3 1.5-8.3 4.5 0 1.7.9 3.2 2.7 4.4s5.7 3.1 11.8 5.5c5.4 2.2 9.4 4.2 11.9 6.1s4.4 4.1 5.6 6.6c1.2 2.4 1.8 5.4 1.8 8.8m36.6 6.7c3.3 0 7.3-.7 11.9-2.2v14c-4.7 2.1-10.5 3.2-17.3 3.2-7.5 0-13-1.9-16.5-5.7-3.4-3.8-5.2-9.5-5.2-17.2v-33.3h-9v-8l10.4-6.3 5.4-14.6h12.1v14.7h19.3v14.2h-19.3v33.3c0 2.7.8 4.7 2.3 5.9 1.5 1.4 3.5 2 5.9 2m33.3-20.9c0 6.8 1.1 12 3.4 15.5 2.2 3.5 5.9 5.3 11 5.3 5 0 8.6-1.7 10.8-5.2s3.3-8.7 3.3-15.5-1.1-12-3.3-15.4-5.9-5.1-10.9-5.1-8.7 1.7-10.9 5.1c-2.3 3.3-3.4 8.4-3.4 15.3m47.8 0c0 11.3-3 20-8.9 26.4s-14.2 9.5-24.8 9.5c-6.6 0-12.5-1.5-17.6-4.4s-9-7.1-11.7-12.5-4.1-11.8-4.1-19c0-11.3 2.9-20.1 8.8-26.3 5.9-6.3 14.2-9.4 24.9-9.4 6.6 0 12.5 1.4 17.6 4.3s9 7 11.7 12.4 4.1 11.8 4.1 19m35.7 35.9c-21.5 0-32.3-11.8-32.3-35.4 0-11.7 2.9-20.7 8.8-26.9s14.2-9.3 25.2-9.3c8 0 15.2 1.6 21.5 4.7l-5.6 14.6c-3-1.2-5.7-2.2-8.3-2.9-2.6-.8-5.1-1.1-7.7-1.1-9.8 0-14.7 7-14.7 20.9 0 13.5 4.9 20.3 14.7 20.3 3.6 0 7-.5 10.1-1.5s6.2-2.5 9.3-4.5v16.1c-3.1 1.9-6.1 3.3-9.2 4-3.2.7-7.1 1-11.8 1m45-38.8 8.2-10.5 19.3-21h21.3l-27.4 30 29.1 39.1h-21.8l-19.9-28-8.1 6.5v21.5h-18.8v-96.2h18.8v42.9l-1 15.7z" fill="#fff"/></svg>